# xmcd
#
# Track frame offsets:
#	150
#	22185
#	35938
#	50855
#	61414
#	83549
#	95149
#	114735
#	135767
#	163642
#	177197
#	189910
#	205443
#
# Disc length: 2880 seconds
#
# Revision: 2
# Processed by: cddbd v1.5.2PL0 Copyright (c) Steve Scherf et al.
# Submitted via: audiograbber 1.82.02
#
DISCID=b80b3e0d
DTITLE=Die Wolpertinger Adax Dörsam Max Scheid - Handgemacht
DYEAR=1900
DGENRE=
TTITLE0=Nix wie weg
TTITLE1=Ich bin ein Wolpertinger
TTITLE2=Ditty Wah Ditty
TTITLE3=Das Edelweiss
TTITLE4=Sweet Georgia brown
TTITLE5=Das Mädchen mit den drei blauen Augen
TTITLE6=Telefonbuch Polka
TTITLE7=Stagger Lee
TTITLE8=Latin Medley
TTITLE9=Der Umgang
TTITLE10=Jammertal Blues
TTITLE11=Das Wolpertinger Lied
TTITLE12=Brotzeit
EXTD=
EXTT0=
EXTT1=
EXTT2=
EXTT3=
EXTT4=
EXTT5=
EXTT6=
EXTT7=
EXTT8=
EXTT9=
EXTT10=
EXTT11=
EXTT12=
PLAYORDER=
